<svg xmlns="http://www.w3.org/2000/svg" width="176" height="28" viewBox="0 0 176 28" fill="none">
<g clip-path="url(#clip0_975_830)">
<path fill-rule="evenodd" clip-rule="evenodd" d="M2.73704 13.6801C2.18305 12.3949 1.92715 11.0003 1.98862 9.60143C2.0501 8.20257 2.42735 6.83596 3.09192 5.60467C3.7565 4.37338 4.69105 3.30954 5.82511 2.49338C6.95917 1.67722 8.26313 1.13004 9.63867 0.893101C14.1054 0.000201434 18.8576 0.000201434 22.1489 2.88107C23.5677 4.11945 24.5069 5.81918 24.8021 7.68251C27.1016 6.25735 29.8021 5.6244 32.493 5.87986L68.6972 6.2842L69.2513 0.876254H81.5097C81.2746 2.91476 81.0395 4.95327 80.8212 6.99178C85.7078 5.6777 91.4003 4.95327 95.229 9.11452C97.0614 7.57296 99.2656 6.542 101.621 6.12506C103.976 5.70812 106.398 5.91987 108.646 6.73907H114.624L115.178 0.84256L161.206 0.876254C166.008 1.39852 169.82 4.12776 170.089 9.13137C170.098 10.4218 169.852 11.7013 169.365 12.8956C168.878 14.09 168.159 15.1755 167.251 16.0892C168.96 20.5143 171.868 24.3716 175.647 27.2252L157.847 27.2758C157.579 26.6187 157.293 25.9785 157.025 25.3383C157.025 25.9448 156.924 26.5682 156.89 27.1747H133.566C134.002 23.2324 134.456 19.2902 134.892 15.3817L132.541 15.7523C132.161 19.571 131.763 23.3897 131.349 27.2084H118.453L119.561 17.6897L114.624 18.5321C114.258 20.5637 113.346 22.4567 111.988 24.0074C107.874 28.4214 98.302 29.1627 94.0367 24.6645C91.8925 26.348 89.3136 27.382 86.6034 27.6447C83.8932 27.9073 81.1647 27.3877 78.739 26.147C78.739 26.5345 78.739 26.922 78.739 27.3095H66.4806L66.934 22.727C66.1783 24.2433 65.4059 25.7427 64.6334 27.2589H55.1962C54.6588 25.4563 54.0711 23.0808 53.349 20.9412C52.7109 19.088 52.2743 17.5718 50.6287 17.4033C49.4868 17.4033 49.386 18.3805 49.2517 19.5429C48.9494 22.1037 48.6304 24.5971 48.3281 27.2084H36.1201V26.2481C35.4373 26.5468 34.7292 26.7836 34.0043 26.9557C31.2193 27.5334 28.3351 27.4119 25.6081 26.6019C24.0507 26.1341 22.6697 25.2065 21.6452 23.94C20.0965 25.2012 18.2996 26.1198 16.3724 26.6356C12.9364 27.6297 9.2688 27.452 5.94437 26.1302C0.386121 23.8221 0.318951 19.088 0.335744 13.9665L2.73704 13.6801Z" fill="white" stroke="#164194" stroke-width="0.4" stroke-linejoin="round"/>
<path fill-rule="evenodd" clip-rule="evenodd" d="M100.401 18.4139C100.401 22.2382 104.381 21.6317 105.439 19.9807L110.695 20.385C109.872 21.8062 108.619 22.9275 107.118 23.586C105.364 24.2586 103.482 24.5291 101.61 24.3778C100.616 24.4329 99.6224 24.2562 98.7076 23.8616C97.7928 23.467 96.9815 22.8652 96.3373 22.1034C95.7717 21.3742 95.3644 20.5344 95.1417 19.6378C94.919 18.7412 94.8859 17.8078 95.0443 16.8976C95.2992 14.9385 96.2324 13.1317 97.6807 11.7929C99.5043 10.2812 101.836 9.52757 104.196 9.68705C105.336 9.61313 106.478 9.80423 107.532 10.2455C108.587 10.6867 109.525 11.3662 110.275 12.231C111.255 13.9313 111.584 15.932 111.199 17.8579V18.3633H100.468L100.401 18.4139ZM100.754 15.8026H106.11C105.976 14.2189 105.674 12.8375 103.793 12.8375C103.012 12.8725 102.272 13.1938 101.712 13.7403C101.151 14.2869 100.811 15.0207 100.754 15.8026ZM88.9991 15.1624C88.9277 14.6245 88.6521 14.135 88.2297 13.796C87.8074 13.4571 87.2709 13.2947 86.7321 13.3429C86.1384 13.3312 85.5543 13.4953 85.0529 13.8146C84.5468 14.1673 84.1309 14.635 83.8391 15.1796C83.5473 15.7241 83.3878 16.3301 83.3737 16.9482C83.3737 18.9193 83.3737 20.604 85.775 20.7893C86.4741 20.823 87.1651 20.6275 87.7438 20.2324C88.3224 19.8373 88.7571 19.2641 88.9823 18.5992L94.02 19.172C93.4697 20.9071 92.2725 22.3618 90.6783 23.2322C89.0161 24.1645 87.1215 24.5972 85.2208 24.4789C84.1157 24.5789 83.0022 24.4295 81.962 24.0418C80.9218 23.6541 79.9812 23.0379 79.2092 22.2382C78.6246 21.5063 78.2062 20.6554 77.9828 19.7447C77.7595 18.834 77.7368 17.8854 77.9162 16.965C78.1591 14.9718 79.1136 13.1344 80.603 11.7929C82.3732 10.3082 84.649 9.5713 86.9504 9.73759C88.4672 9.62294 89.9868 9.91971 91.35 10.5968C92.0776 10.9971 92.7003 11.5645 93.1673 12.2526C93.6343 12.9408 93.9322 13.73 94.0368 14.5559L88.9991 15.1624ZM71.787 10.1082H77.2445L75.5653 24.1082H70.1749L71.8542 10.024L71.787 10.1082ZM53.3155 10.1082H58.9577L60.6369 18.9867L64.5159 10.1082H69.9734L62.4841 24.0914H57.6479L53.3659 10.1082H53.3155ZM41.3594 10.1082H46.3971L46.078 12.5005C46.364 11.6835 46.9027 10.9797 47.6157 10.4917C48.3287 10.0037 49.1785 9.75719 50.041 9.78813C50.8251 9.91996 51.5877 10.158 52.3079 10.4957L50.3768 14.2695C47.3374 12.7532 46.2627 15.8194 45.994 18.2623L45.3391 24.0914H39.7977L41.4769 9.9903L41.3594 10.1082ZM28.127 18.5318C28.0431 22.3561 32.1068 21.7496 33.1647 20.0986L38.4207 20.5029C37.592 21.8723 36.3597 22.9496 34.8943 23.586C33.1402 24.2586 31.2583 24.5291 29.3865 24.3778C28.3922 24.4329 27.3988 24.2562 26.484 23.8616C25.5691 23.467 24.7579 22.8652 24.1137 22.1034C23.548 21.3742 23.1408 20.5344 22.9181 19.6378C22.6954 18.7412 22.6622 17.8078 22.8207 16.8976C23.0756 14.9385 24.0088 13.1317 25.4571 11.7929C27.2568 10.2825 29.5628 9.51728 31.9053 9.65335C33.0454 9.57943 34.187 9.77054 35.2414 10.2118C36.2957 10.653 37.2344 11.3325 37.9841 12.1973C38.9643 13.8976 39.2927 15.8983 38.9077 17.8242V18.3296H28.1774L28.127 18.5318ZM28.3957 15.9205H33.7693C33.6349 14.3369 33.3327 12.9554 31.4519 12.9554C30.6733 12.9931 29.9347 13.3126 29.3728 13.8546C28.811 14.3967 28.4638 15.1246 28.3957 15.9037V15.9205ZM15.8351 10.1082C15.8615 9.74704 15.8108 9.38436 15.6862 9.04443C15.5617 8.7045 15.3663 8.39516 15.113 8.13711C14.5152 7.78377 13.823 7.62487 13.1315 7.68223C11.4523 7.80016 10.1425 9.16479 11.4523 10.2767C12.4321 10.6745 13.4508 10.9682 14.4917 11.1528C16.4112 11.4763 18.2384 12.2118 19.8484 13.3092C20.4244 13.82 20.8585 14.4719 21.1087 15.2011C21.3588 15.9304 21.4164 16.7122 21.2758 17.4704V17.7737C21.1453 18.7552 20.8007 19.6959 20.2667 20.5287C19.7327 21.3615 19.0223 22.0659 18.186 22.592C16.2363 23.7253 14.0061 24.2803 11.7546 24.1925C9.70899 24.3489 7.66584 23.86 5.91084 22.7941C5.08468 22.1922 4.44467 21.3684 4.06443 20.4177C3.68419 19.467 3.57917 18.4279 3.76143 17.4199L9.38685 17.083C9.3763 17.5909 9.47597 18.0951 9.67894 18.5605C9.88191 19.0259 10.1833 19.4415 10.5623 19.7785C12.93 21.4632 17.2792 19.0541 14.6093 16.8302C14.3376 16.6379 14.0372 16.49 13.7193 16.3922C12.124 15.8363 10.3608 15.5836 8.88308 14.9771C7.8832 14.614 6.99681 13.9921 6.31386 13.1744C4.31558 10.3609 5.47424 7.19367 8.26177 5.35733C9.97561 4.32383 11.9572 3.82534 13.9544 3.92532C15.7914 3.81544 17.6213 4.23641 19.2271 5.13831C19.9988 5.63841 20.6195 6.34068 21.022 7.16916C21.4245 7.99763 21.5936 8.92076 21.5109 9.83867L15.8351 10.1082Z" fill="#164194"/>
<path fill-rule="evenodd" clip-rule="evenodd" d="M139.527 4.59937H145.472L144.968 9.33342H138.973L139.527 4.59937ZM118.302 4.59937H136.488L136.018 9.33342H117.764L118.302 4.54883V4.59937ZM122.265 24.0579H128.26L129.301 14.0338L123.306 14.9604L122.265 24.0073V24.0579ZM138.587 12.6523L144.699 11.6583L143.373 24.1252H137.378L138.587 12.6523ZM149.922 4.54883H160.803C164.732 4.80154 166.613 6.77265 166.731 9.60298C166.728 11.0347 166.201 12.4157 165.251 13.4839C164.301 14.5521 162.993 15.2334 161.576 15.3984C162.406 15.7859 163.147 16.3425 163.751 17.0328C164.355 17.7231 164.809 18.532 165.085 19.408C165.55 21.1747 166.458 22.7928 167.721 24.1084H160.148L157.495 18.1445C156.588 16.6956 156.37 16.3082 154.691 16.1565L153.817 24.1084H147.772L149.2 10.9171L155.413 9.87253L155.312 11.5573H157.327C158.099 11.5573 159.225 11.0687 159.225 10.1084C159.225 9.14811 158.368 8.87855 157.663 8.8617H155.564C155.564 9.03018 155.564 9.35027 155.564 9.5019L149.451 9.40081L149.938 4.54883H149.922Z" fill="#164194"/>
<path fill-rule="evenodd" clip-rule="evenodd" d="M170.257 2.9653C170.253 2.53429 170.363 2.10999 170.576 1.73546C170.793 1.37185 171.1 1.07021 171.466 0.859406C171.837 0.638668 172.261 0.522276 172.692 0.522463C173.118 0.52195 173.536 0.638475 173.901 0.859406C174.266 1.06613 174.568 1.36906 174.774 1.73546C174.994 2.1077 175.11 2.53253 175.11 2.9653C175.108 3.39021 174.998 3.80758 174.791 4.1783C174.574 4.5467 174.268 4.85392 173.901 5.0712C173.534 5.28623 173.116 5.3969 172.692 5.3913C172.262 5.39742 171.838 5.28682 171.466 5.0712C171.099 4.85392 170.793 4.5467 170.576 4.1783C170.362 3.8106 170.251 3.39122 170.257 2.9653ZM170.66 2.9653C170.653 3.32092 170.746 3.67133 170.929 3.97613C171.108 4.28221 171.363 4.53734 171.668 4.71741C171.977 4.89469 172.327 4.98794 172.684 4.98794C173.04 4.98794 173.39 4.89469 173.699 4.71741C174.005 4.53734 174.259 4.28221 174.438 3.97613C174.615 3.6688 174.708 3.32018 174.708 2.9653C174.708 2.61043 174.615 2.2618 174.438 1.95447C174.259 1.64839 174.005 1.39327 173.699 1.2132C173.395 1.02957 173.047 0.930707 172.692 0.926795C172.42 0.930785 172.152 0.988017 171.903 1.09527C171.658 1.19687 171.436 1.34588 171.248 1.53379C171.061 1.72169 170.912 1.94479 170.811 2.19033C170.71 2.43592 170.658 2.69944 170.66 2.9653ZM172.339 3.18432V4.19515H171.768V1.68492H172.961C173.096 1.68408 173.229 1.71894 173.347 1.786C173.464 1.84842 173.563 1.94155 173.632 2.05556C173.703 2.18445 173.737 2.32985 173.733 2.47673C173.736 2.6388 173.682 2.79681 173.581 2.92308C173.48 3.04936 173.337 3.13587 173.179 3.16747L173.867 4.24569H173.229L172.574 3.23486L172.339 3.18432ZM172.339 2.0724V2.76314H172.658C172.944 2.76314 173.095 2.64521 173.095 2.42619C173.121 2.34394 173.121 2.25574 173.095 2.17349C173.067 2.14255 173.034 2.11762 172.996 2.10023C172.959 2.08284 172.918 2.07337 172.877 2.0724H172.339Z" fill="#164194"/>
<path fill-rule="evenodd" clip-rule="evenodd" d="M110.057 10.3945H146.093L112.357 15.7519C112.391 14.744 112.202 13.741 111.805 12.8148C111.407 11.8886 110.81 11.0621 110.057 10.3945Z" fill="#E30613"/>
<path fill-rule="evenodd" clip-rule="evenodd" d="M71.9551 8.37313L72.3581 4.6499H77.698L77.3286 8.37313H71.9551Z" fill="#E30613"/>
</g>
<defs>
<clipPath id="clip0_975_830">
<rect width="176" height="28" fill="white"/>
</clipPath>
</defs>
</svg>
